<?xml version="1.0" standalone="no"?><!DOCTYPE svg PUBLIC "-//W3C//DTD SVG 1.1//EN" "http://www.w3.org/Graphics/SVG/1.1/DTD/svg11.dtd"><svg t="1681529794516" class="icon" viewBox="0 0 1024 1024" version="1.1" xmlns="http://www.w3.org/2000/svg" p-id="1042" width="16" height="16" xmlns:xlink="http://www.w3.org/1999/xlink"><path d="M947.2 921.6l-870.4 0c-42.3424 0-76.8-34.4576-76.8-76.8l0-665.6c0-42.3424 34.4576-76.8 76.8-76.8l870.4 0c42.3424 0 76.8 34.4576 76.8 76.8l0 665.6c0 42.3424-34.4576 76.8-76.8 76.8zM76.8 153.6c-14.1312 0-25.6 11.4688-25.6 25.6l0 665.6c0 14.1312 11.4688 25.6 25.6 25.6l870.4 0c14.1312 0 25.6-11.4688 25.6-25.6l0-665.6c0-14.1312-11.4688-25.6-25.6-25.6l-870.4 0z" fill="#d81e06" p-id="1043"></path><path d="M486.4 307.2l-307.2 0c-14.1312 0-25.6-11.4688-25.6-25.6s11.4688-25.6 25.6-25.6l307.2 0c14.1312 0 25.6 11.4688 25.6 25.6s-11.4688 25.6-25.6 25.6z" fill="#d81e06" p-id="1044"></path><path d="M486.4 460.8l-307.2 0c-14.1312 0-25.6-11.4688-25.6-25.6s11.4688-25.6 25.6-25.6l307.2 0c14.1312 0 25.6 11.4688 25.6 25.6s-11.4688 25.6-25.6 25.6z" fill="#d81e06" p-id="1045"></path><path d="M486.4 563.2l-307.2 0c-14.1312 0-25.6-11.4688-25.6-25.6s11.4688-25.6 25.6-25.6l307.2 0c14.1312 0 25.6 11.4688 25.6 25.6s-11.4688 25.6-25.6 25.6z" fill="#d81e06" p-id="1046"></path><path d="M486.4 665.6l-307.2 0c-14.1312 0-25.6-11.4688-25.6-25.6s11.4688-25.6 25.6-25.6l307.2 0c14.1312 0 25.6 11.4688 25.6 25.6s-11.4688 25.6-25.6 25.6z" fill="#d81e06" p-id="1047"></path><path d="M435.2 768l-256 0c-14.1312 0-25.6-11.4688-25.6-25.6s11.4688-25.6 25.6-25.6l256 0c14.1312 0 25.6 11.4688 25.6 25.6s-11.4688 25.6-25.6 25.6z" fill="#d81e06" p-id="1048"></path><path d="M918.6816 335.0528l-41.6256-30.2592-15.9232-48.9472-51.456 0-41.6256-30.2592-41.6256 30.2592-51.456 0-15.9232 48.9472-41.6256 30.2592 15.9232 48.9472-15.9232 48.9472 41.6256 30.2592 6.7584 20.7872c-0.1024 0.8192-0.1024 1.5872-0.1024 2.4064l0 256c0 10.3424 6.2464 19.712 15.8208 23.6544s20.5824 1.792 27.904-5.5296l58.6752-58.6752 58.6752 58.6752c4.9152 4.9152 11.4176 7.5264 18.1248 7.4752 3.2768 0 6.6048-0.6144 9.7792-1.9456 9.5744-3.9424 15.8208-13.312 15.8208-23.6544l0-256c0-0.8192-0.0512-1.6384-0.1024-2.4064l6.7584-20.7872 41.6256-30.2592-15.9232-48.9472 15.9232-48.9472zM677.5296 354.6112l24.9856-18.176 9.5744-29.3888 30.9248 0 24.9856-18.176 24.9856 18.176 30.9248 0 9.5744 29.3888 24.9856 18.176-9.5744 29.3888 9.5744 29.3888-24.9856 18.176-9.5744 29.3888-30.9248 0-24.9856 18.176-24.9856-18.176-30.9248 0-9.5744-29.3888-24.9856-18.176 9.5744-29.3888-9.5744-29.3888zM786.1248 647.4752c-9.984-9.984-26.2144-9.984-36.1984 0l-33.0752 33.0752 0-168.448 9.5744 0 41.6256 30.2592 41.6256-30.2592 9.5744 0 0 168.448-33.0752-33.0752z" fill="#d81e06" p-id="1049"></path></svg>