<svg xmlns="http://www.w3.org/2000/svg" version="1.1" xmlns:xlink="http://www.w3.org/1999/xlink" xmlns:svgjs="http://svgjs.dev/svgjs" width="1000" height="131" viewBox="0 0 1000 131"><g transform="matrix(1,0,0,1,-0.606060415233685,-0.4413747863172972)"><svg viewBox="0 0 396 52" data-background-color="#ffffff" preserveAspectRatio="xMidYMid meet" height="131" width="1000" xmlns="http://www.w3.org/2000/svg" xmlns:xlink="http://www.w3.org/1999/xlink"><g id="tight-bounds" transform="matrix(1,0,0,1,0.2400000755674796,0.17521126101476625)"><svg viewBox="0 0 395.52 51.64958653372954" height="51.64958653372954" width="395.52"><g><svg viewBox="0 0 511.71738133353705 66.8234" height="51.64958653372954" width="395.52"><g><svg viewBox="0 0 511.71738133353705 66.8234" height="66.8234" width="511.71738133353705"><g id="textblocktransform"><svg viewBox="0 0 511.71738133353705 66.8234" height="66.8234" width="511.71738133353705" id="textblock"><g><svg viewBox="0 0 511.71738133353705 66.8234" height="66.8234" width="511.71738133353705"><g><svg><g></g><g></g></svg></g><g><svg><g></g><g><svg></svg></g></svg></g><g id="text-0"><svg viewBox="0 0 511.71738133353705 66.8234" height="66.8234" width="511.71738133353705"><g><svg xmlns="http://www.w3.org/2000/svg" xmlns:xlink="http://www.w3.org/1999/xlink" version="1.1" x="0" y="0" viewBox="0.004000186920166016 16.056011199951172 95.99600219726562 63.87900161743164" enable-background="new 0 0 96 96" xml:space="preserve" width="100.42078133353701" height="66.8234" class="icon-s-0" data-fill-palette-color="accent" id="s-0"><path d="M52.736 79.928c-1.797 0-3.381-2.08-3.853-3.82l-6.996-26.071-6.54 12.899c-0.572 1.141-1.652 1.828-2.908 2.049-1.26 0.203-2.54-0.244-3.46-1.133l-8.104-7.916H4.004c-2.208 0-4-1.787-4-4 0-2.211 1.792-4 4-4h18.492c1.04 0 2.04 0.412 2.788 1.132l5.344 5.188 8.776-17.608c0.744-1.48 2.312-2.38 3.972-2.196 1.652 0.16 3.028 1.324 3.468 2.924l5.364 19.668 7.836-37.8c0.38-1.836 1.983-3.16 3.86-3.188 1.947 0.016 3.512 1.252 3.947 3.08l6.297 26.62 4.588-1.6c0.416-0.148 0.867-0.224 1.315-0.224H92c2.204 0 4 1.788 4 4 0 2.212-1.796 4-4 4H80.736l-8.145 2.836c-1.076 0.377-2.248 0.272-3.24-0.264-0.992-0.548-1.711-1.484-1.968-2.584l-3.172-13.396-7.563 37.348c-0.377 1.812-1.944 4.063-3.793 4.063C52.82 79.928 52.779 79.928 52.736 79.928z" fill="#bb84e8" data-fill-palette-color="accent"></path></svg></g><g transform="matrix(1,0,0,1,116.19738133353701,8.24999944547135)"><svg width="395.52000000000004" viewBox="1.149999976158142 -40.849998474121094 324.57000732421875 41.29999923706055" height="50.32340110905731" data-palette-color="#a437db"><path d="M15.15 0L10.2 0 1.15-40.5 6.45-40.5 12.85-10.65 18.95-40.5 24.1-40.5 15.15 0ZM38.35 0.45L38.35 0.45Q34.25 0.45 31.8-1.15 29.35-2.75 28.3-5.73 27.25-8.7 27.25-12.7L27.25-12.7 27.25-28.05Q27.25-32.05 28.32-34.93 29.4-37.8 31.82-39.33 34.25-40.85 38.35-40.85L38.35-40.85Q42.45-40.85 44.85-39.3 47.25-37.75 48.32-34.9 49.4-32.05 49.4-28.05L49.4-28.05 49.4-12.65Q49.4-8.7 48.32-5.75 47.25-2.8 44.85-1.18 42.45 0.45 38.35 0.45ZM38.35-4L38.35-4Q40.6-4 41.75-4.93 42.9-5.85 43.3-7.53 43.7-9.2 43.7-11.45L43.7-11.45 43.7-29.2Q43.7-31.45 43.3-33.08 42.9-34.7 41.75-35.58 40.6-36.45 38.35-36.45L38.35-36.45Q36.1-36.45 34.92-35.58 33.75-34.7 33.35-33.08 32.95-31.45 32.95-29.2L32.95-29.2 32.95-11.45Q32.95-9.2 33.35-7.53 33.75-5.85 34.92-4.93 36.1-4 38.35-4ZM60.8 0L55.25 0 55.25-40.5 60.8-40.5 60.8 0ZM77.49 0.45L77.49 0.45Q73.19 0.45 70.82-1.35 68.44-3.15 67.52-6.2 66.59-9.25 66.59-13L66.59-13 66.59-27.3Q66.59-31.4 67.52-34.45 68.44-37.5 70.82-39.18 73.19-40.85 77.49-40.85L77.49-40.85Q81.29-40.85 83.52-39.45 85.74-38.05 86.72-35.45 87.69-32.85 87.69-29.2L87.69-29.2 87.69-26 82.34-26 82.34-28.85Q82.34-31.1 82.12-32.83 81.89-34.55 80.89-35.5 79.89-36.45 77.54-36.45L77.54-36.45Q75.14-36.45 74.04-35.43 72.94-34.4 72.62-32.52 72.29-30.65 72.29-28.15L72.29-28.15 72.29-12.1Q72.29-9.05 72.79-7.28 73.29-5.5 74.44-4.75 75.59-4 77.54-4L77.54-4Q79.84-4 80.84-5.03 81.84-6.05 82.09-7.85 82.34-9.65 82.34-12.05L82.34-12.05 82.34-15.05 87.69-15.05 87.69-12.05Q87.69-8.35 86.79-5.53 85.89-2.7 83.69-1.13 81.49 0.45 77.49 0.45ZM108.89 0L93.09 0 93.09-40.5 108.79-40.5 108.79-36.3 98.74-36.3 98.74-22.9 106.89-22.9 106.89-18.9 98.74-18.9 98.74-4.05 108.89-4.05 108.89 0ZM123.89-13.05L112.74-13.05 112.74-17.1 123.89-17.1 123.89-13.05ZM132.59 0L127.29 0 135.89-40.5 141.34-40.5 149.99 0 144.64 0 142.79-10.2 134.54-10.2 132.59 0ZM138.64-32.5L135.29-14.25 142.04-14.25 138.64-32.5ZM163.63 0.45L163.63 0.45Q160.13 0.45 157.81-1.05 155.48-2.55 154.28-5.2 153.08-7.85 152.88-11.35L152.88-11.35 157.88-12.7Q158.03-10.55 158.56-8.55 159.08-6.55 160.28-5.28 161.48-4 163.63-4L163.63-4Q165.83-4 166.96-5.23 168.08-6.45 168.08-8.75L168.08-8.75Q168.08-11.5 166.83-13.18 165.58-14.85 163.68-16.55L163.68-16.55 156.88-22.55Q154.88-24.3 153.93-26.38 152.98-28.45 152.98-31.5L152.98-31.5Q152.98-35.95 155.53-38.4 158.08-40.85 162.48-40.85L162.48-40.85Q164.88-40.85 166.71-40.23 168.53-39.6 169.76-38.3 170.98-37 171.71-35.02 172.43-33.05 172.68-30.4L172.68-30.4 167.88-29.1Q167.73-31.1 167.28-32.77 166.83-34.45 165.71-35.48 164.58-36.5 162.48-36.5L162.48-36.5Q160.38-36.5 159.21-35.38 158.03-34.25 158.03-32.05L158.03-32.05Q158.03-30.2 158.66-29 159.28-27.8 160.68-26.55L160.68-26.55 167.53-20.55Q169.83-18.55 171.58-15.78 173.33-13 173.33-9.2L173.33-9.2Q173.33-6.2 172.08-4.03 170.83-1.85 168.66-0.7 166.48 0.45 163.63 0.45ZM187.28 0.45L187.28 0.45Q183.78 0.45 181.46-1.05 179.13-2.55 177.93-5.2 176.73-7.85 176.53-11.35L176.53-11.35 181.53-12.7Q181.68-10.55 182.21-8.55 182.73-6.55 183.93-5.28 185.13-4 187.28-4L187.28-4Q189.48-4 190.61-5.23 191.73-6.45 191.73-8.75L191.73-8.75Q191.73-11.5 190.48-13.18 189.23-14.85 187.33-16.55L187.33-16.55 180.53-22.55Q178.53-24.3 177.58-26.38 176.63-28.45 176.63-31.5L176.63-31.5Q176.63-35.95 179.18-38.4 181.73-40.85 186.13-40.85L186.13-40.85Q188.53-40.85 190.36-40.23 192.18-39.6 193.41-38.3 194.63-37 195.36-35.02 196.08-33.05 196.33-30.4L196.33-30.4 191.53-29.1Q191.38-31.1 190.93-32.77 190.48-34.45 189.36-35.48 188.23-36.5 186.13-36.5L186.13-36.5Q184.03-36.5 182.86-35.38 181.68-34.25 181.68-32.05L181.68-32.05Q181.68-30.2 182.31-29 182.93-27.8 184.33-26.55L184.33-26.55 191.18-20.55Q193.48-18.55 195.23-15.78 196.98-13 196.98-9.2L196.98-9.2Q196.98-6.2 195.73-4.03 194.48-1.85 192.31-0.7 190.13 0.45 187.28 0.45ZM207.23 0L201.68 0 201.68-40.5 207.23-40.5 207.23 0ZM223.33 0.45L223.33 0.45Q219.83 0.45 217.5-1.05 215.18-2.55 213.98-5.2 212.78-7.85 212.58-11.35L212.58-11.35 217.58-12.7Q217.73-10.55 218.25-8.55 218.78-6.55 219.98-5.28 221.18-4 223.33-4L223.33-4Q225.53-4 226.65-5.23 227.78-6.45 227.78-8.75L227.78-8.75Q227.78-11.5 226.53-13.18 225.28-14.85 223.38-16.55L223.38-16.55 216.58-22.55Q214.58-24.3 213.63-26.38 212.68-28.45 212.68-31.5L212.68-31.5Q212.68-35.95 215.23-38.4 217.78-40.85 222.18-40.85L222.18-40.85Q224.58-40.85 226.4-40.23 228.23-39.6 229.45-38.3 230.68-37 231.4-35.02 232.13-33.05 232.38-30.4L232.38-30.4 227.58-29.1Q227.43-31.1 226.98-32.77 226.53-34.45 225.4-35.48 224.28-36.5 222.18-36.5L222.18-36.5Q220.08-36.5 218.9-35.38 217.73-34.25 217.73-32.05L217.73-32.05Q217.73-30.2 218.35-29 218.98-27.8 220.38-26.55L220.38-26.55 227.23-20.55Q229.53-18.55 231.28-15.78 233.03-13 233.03-9.2L233.03-9.2Q233.03-6.2 231.78-4.03 230.53-1.85 228.35-0.7 226.18 0.45 223.33 0.45ZM247.52 0L241.87 0 241.87-36.3 235.02-36.3 235.02-40.5 254.17-40.5 254.17-36.3 247.52-36.3 247.52 0ZM261.07 0L255.77 0 264.37-40.5 269.82-40.5 278.47 0 273.12 0 271.27-10.2 263.02-10.2 261.07 0ZM267.12-32.5L263.77-14.25 270.52-14.25 267.12-32.5ZM287.37 0L282.57 0 282.57-40.5 286.42-40.5 297.92-13.6 297.92-40.5 302.62-40.5 302.62 0 299.02 0 287.37-27.65 287.37 0ZM319.07 0L313.42 0 313.42-36.3 306.57-36.3 306.57-40.5 325.72-40.5 325.72-36.3 319.07-36.3 319.07 0Z" opacity="1" transform="matrix(1,0,0,1,0,0)" fill="#a437db" class="undefined-text-0" data-fill-palette-color="primary"></path></svg></g></svg></g></svg></g></svg></g></svg></g></svg></g><defs></defs></svg><rect width="395.52" height="51.64958653372954" fill="none" stroke="none" visibility="hidden"></rect></g></svg></g></svg>