<?xml version="1.0" standalone="no"?><!DOCTYPE svg PUBLIC "-//W3C//DTD SVG 1.1//EN" "http://www.w3.org/Graphics/SVG/1.1/DTD/svg11.dtd"><svg t="1681498989236" class="icon" viewBox="0 0 1024 1024" version="1.1" xmlns="http://www.w3.org/2000/svg" p-id="6450" width="32" height="32" xmlns:xlink="http://www.w3.org/1999/xlink"><path d="M513.12 523.2m-464 0a464 464 0 1 0 928 0 464 464 0 1 0-928 0Z" p-id="6451"></path><path d="M618.24 458.24l11.04 5.6-11.04-6.72z" fill="#FFFFFF" p-id="6452"></path><path d="M532.96 624.8a24 24 0 0 0 0-5.92V293.12h66.08c0-3.2 0-6.56-1.12-9.92h-83.2v325.92a23.36 23.36 0 0 1 0 5.76 68.96 68.96 0 0 1-88.16 51.2 67.36 67.36 0 0 0 106.88-41.28zM322.08 662.24a146.24 146.24 0 0 1-9.12-57.92A152.32 152.32 0 0 1 422.24 464a136.64 136.64 0 0 1 25.76-5.76V448a142.72 142.72 0 0 0-44 6.08A152.64 152.64 0 0 0 304 652.32a156.48 156.48 0 0 0 83.04 88.32 155.84 155.84 0 0 1-64.96-78.4zM713.6 398.08a110.24 110.24 0 0 1-41.6-8.32 109.76 109.76 0 0 0 41.6 16z" fill="#FFFFFF" opacity=".7" p-id="6453"></path><path d="M633.28 363.84A120.16 120.16 0 0 0 672 389.76a132.8 132.8 0 0 1-20-16 122.08 122.08 0 0 1-34.72-80h-17.6a116.16 116.16 0 0 0 33.6 70.08zM713.6 406.24v76.48A188 188 0 0 1 629.28 464a196.16 196.16 0 0 0 103.04 28.8v-84.8a119.84 119.84 0 0 1-18.72-1.76zM599.52 454.4v146.24a153.28 153.28 0 0 1-128 150.72 148.8 148.8 0 0 1-84.8-10.72 149.76 149.76 0 0 0 103.52 20.64 153.44 153.44 0 0 0 128-150.88v-152.16q-9.44-5.12-18.72-11.04zM435.04 532.32A68.32 68.32 0 0 0 378.24 592a69.92 69.92 0 0 0 40 71.04 48 48 0 0 0 7.84 3.2 68.48 68.48 0 0 1 27.68-123.84c4.16 0 8.32-1.12 12.48-1.76v-83.2a144 144 0 0 0-18.72 0.8v72.48c-4.16 0.48-8.32 0.8-12.48 1.6z" fill="#FFFFFF" opacity=".4" p-id="6454"></path><path d="M713.6 482.72v-76.48a109.76 109.76 0 0 1-41.6-16 120.16 120.16 0 0 1-38.72-25.92 116.16 116.16 0 0 1-33.6-70.72h-66.08v325.76a24 24 0 0 1 0 5.92 67.36 67.36 0 0 1-106.88 41.28 48 48 0 0 1-7.84-3.2A69.92 69.92 0 0 1 378.24 592a68.32 68.32 0 0 1 56.8-59.52c4.16-0.8 8.32-1.12 12.48-1.6v-72.64a136.64 136.64 0 0 0-25.28 5.28 152.32 152.32 0 0 0-109.28 140.8 146.24 146.24 0 0 0 9.12 57.92 155.84 155.84 0 0 0 64 78.4 148.8 148.8 0 0 0 84.8 10.72 153.28 153.28 0 0 0 128-150.72V448q9.44 6.08 18.72 11.04v-1.12l11.04 6.72a188 188 0 0 0 84.96 18.08z" fill="#FFFFFF" p-id="6455"></path></svg>