<?xml version="1.0" standalone="no"?><!DOCTYPE svg PUBLIC "-//W3C//DTD SVG 1.1//EN" "http://www.w3.org/Graphics/SVG/1.1/DTD/svg11.dtd"><svg t="1681642767219" class="icon" viewBox="0 0 1025 1024" version="1.1" xmlns="http://www.w3.org/2000/svg" p-id="2174" width="16.015625" height="16" xmlns:xlink="http://www.w3.org/1999/xlink"><path d="M1023.52 449.792c-0.832-19.04-1.664-38.112-2.496-57.12-3.84-24.192-2.432-48.864-6.72-72.128-2.016-12.864-4-25.792-5.984-38.656-7.04-32.224-13.856-62.752-24.96-90.528-20.576-51.52-52.32-94.88-96.544-122.752-94.752-59.68-235.68-68.992-390.72-68.576-15.456 0.256-30.944 0.48-46.4 0.736-9.472 0.352-18.944 0.672-28.448 1.024-6.72 0.32-13.472 0.64-20.224 0.992-18.208 1.408-36.448 2.816-54.624 4.256-9.888 1.184-19.808 2.304-29.696 3.488-22.176 4.128-44.128 6.464-64.864 11.712-95.648 24.32-151.648 60.192-195.872 136.16-21.984 37.728-31.232 84.16-41.92 133.472-2.24 16.64-4.48 33.248-6.72 49.888-1.568 19.776-3.168 39.584-4.736 59.36-0.256 6.72-0.48 13.472-0.768 20.224-0.576 18.208-1.152 36.448-1.728 54.624l0 55.616c0.32 17.12 0.672 34.272 1.024 51.36 0.384 11.904 0.832 23.808 1.248 35.68 0.48 8.064 1.024 16.128 1.504 24.192 3.456 21.664 2.624 43.744 6.464 64.64 5.92 31.936 9.824 62.816 18.72 91.296 24.096 77.344 60.384 129.088 124.256 166.624 28.512 16.768 62.624 27.52 98.56 36.672 13.312 2.656 26.592 5.312 39.904 8 16.64 2.24 33.28 4.48 49.888 6.72 21.28 1.664 42.592 3.328 63.872 4.992 7.232 0.256 14.496 0.48 21.696 0.736 15.328 0.416 30.624 0.832 45.92 1.248 7.648 0.096 15.296 0.192 22.944 0.256l31.904 0c20.8-0.32 41.6-0.64 62.4-1.024 5.984-0.256 12-0.48 17.952-0.736 17.792-1.152 35.616-2.336 53.408-3.52 15.232-1.664 30.432-3.328 45.664-4.992 34.208-6.336 66.848-10.912 97.056-20.448 65.536-20.672 114.208-53.728 149.696-104.288 27.328-38.88 41.376-88.288 53.408-142.688 2.592-16.864 5.184-33.76 7.712-50.624 1.856-20.096 3.648-40.256 5.504-60.384 0.32-7.232 0.672-14.464 1.024-21.696 0.64-16.448 1.312-32.928 2.016-49.408l0-13.248c0.096-7.648 0.16-15.296 0.256-22.976l0-54.88c-0.192-7.808-0.352-15.616-0.512-23.424zM655.328 720.576l-40.544 30.88c-50.496 38.208-69.28 52.448-90.016 73.024-3.456 3.456-7.968 5.376-12.8 5.376s-9.408-1.888-12.768-5.376c-15.68-15.552-30.208-26.592-59.2-48.64-18.336-14.048-40.896-31.168-71.648-55.36-81.152-64-192.352-151.424-192.352-276.768 0-121.856 93.056-187.584 180.576-187.584 59.136 0 114.048 27.552 155.328 77.792 41.376-50.272 96.384-77.888 155.648-77.888 87.36 0 180.384 65.312 180.352 186.432 0 131.808-125.28 227.072-192.544 278.112z" fill="#FF5566" p-id="2175"></path><path d="M667.552 292.256c-54.4 0-105.632 29.92-140.48 82.144-6.432 9.664-23.744 9.664-30.208 0-34.912-52.128-86.048-82.048-140.288-82.048-69.952 0-144.352 52.992-144.352 151.328 0 107.712 103.072 188.832 178.336 248 31.136 24.64 53.76 41.856 71.328 55.168 21.696 16.544 36.576 27.808 49.92 39.744 18.336-16.704 38.816-32.256 80.992-64.192l40.48-30.72c86.272-65.504 178.272-144.288 178.272-249.28 0.032-97.536-74.24-150.144-144.064-150.144zM607.744 657.952l-40.544 30.72c-24.256 18.464-41.6 31.52-55.744 42.752-7.136-5.44-14.944-11.456-23.936-18.304-15.392-11.744-38.688-29.408-70.816-54.784-68.448-53.856-162.112-127.584-162.112-214.752 0-71.552 51.264-108.96 101.952-108.96 39.872 0 78.176 23.072 105.088 63.232 11.104 16.576 29.856 26.496 50.24 26.496s39.168-9.888 50.304-26.432c26.88-40.256 65.312-63.328 105.312-63.328 50.56 0 101.76 37.024 101.76 107.744 0.032 85.632-83.328 156.192-161.504 215.584z" fill="#FF5566" p-id="2176"></path></svg>